<mxfile host="Electron" modified="2024-05-16T06:00:55.017Z" agent="Mozilla/5.0 (X11; Linux x86_64) AppleWebKit/537.36 (KHTML, like Gecko) draw.io/24.2.5 Chrome/120.0.6099.109 Electron/28.1.0 Safari/537.36" etag="gJ6fx8iYD_A6ou8sq1Ty" version="24.2.5" type="device">
  <diagram name="Page-1" id="7lTnMzHVV9EdD_e6H52A">
    <mxGraphModel dx="649" dy="401" grid="1" gridSize="10" guides="1" tooltips="1" connect="1" arrows="1" fold="1" page="1" pageScale="1" pageWidth="1654" pageHeight="1169" math="0" shadow="0">
      <root>
        <mxCell id="0" />
        <mxCell id="1" parent="0" />
        <mxCell id="Lmu29EtrBAVmeMRxVqhO-1" value="Ahmet" style="shape=umlActor;verticalLabelPosition=bottom;verticalAlign=top;html=1;outlineConnect=0;fillColor=#fff2cc;strokeColor=#d6b656;" vertex="1" parent="1">
          <mxGeometry x="200" y="270" width="30" height="60" as="geometry" />
        </mxCell>
        <mxCell id="Lmu29EtrBAVmeMRxVqhO-2" value="Ali" style="shape=umlActor;verticalLabelPosition=bottom;verticalAlign=top;html=1;outlineConnect=0;fillColor=#fff2cc;strokeColor=#d6b656;" vertex="1" parent="1">
          <mxGeometry x="270" y="270" width="30" height="60" as="geometry" />
        </mxCell>
        <mxCell id="Lmu29EtrBAVmeMRxVqhO-3" value="Mustafa" style="shape=umlActor;verticalLabelPosition=bottom;verticalAlign=top;html=1;outlineConnect=0;fillColor=#f8cecc;strokeColor=#b85450;" vertex="1" parent="1">
          <mxGeometry x="80" y="270" width="30" height="60" as="geometry" />
        </mxCell>
        <mxCell id="Lmu29EtrBAVmeMRxVqhO-4" value="Heydar" style="shape=umlActor;verticalLabelPosition=bottom;verticalAlign=top;html=1;outlineConnect=0;fillColor=#f8cecc;strokeColor=#b85450;" vertex="1" parent="1">
          <mxGeometry x="140" y="270" width="30" height="60" as="geometry" />
        </mxCell>
        <mxCell id="Lmu29EtrBAVmeMRxVqhO-5" value="Ahmet" style="shape=umlActor;verticalLabelPosition=bottom;verticalAlign=top;html=1;outlineConnect=0;fillColor=#fff2cc;strokeColor=#d6b656;" vertex="1" parent="1">
          <mxGeometry x="340" y="260" width="30" height="60" as="geometry" />
        </mxCell>
        <mxCell id="Lmu29EtrBAVmeMRxVqhO-6" value="Emir" style="shape=umlActor;verticalLabelPosition=bottom;verticalAlign=top;html=1;outlineConnect=0;fillColor=#d5e8d4;strokeColor=#82b366;" vertex="1" parent="1">
          <mxGeometry x="540" y="260" width="30" height="60" as="geometry" />
        </mxCell>
        <mxCell id="Lmu29EtrBAVmeMRxVqhO-7" value="Anar" style="shape=umlActor;verticalLabelPosition=bottom;verticalAlign=top;html=1;outlineConnect=0;fillColor=#d5e8d4;strokeColor=#82b366;" vertex="1" parent="1">
          <mxGeometry x="480" y="260" width="30" height="60" as="geometry" />
        </mxCell>
        <mxCell id="Lmu29EtrBAVmeMRxVqhO-8" value="Ali" style="shape=umlActor;verticalLabelPosition=bottom;verticalAlign=top;html=1;outlineConnect=0;fillColor=#fff2cc;strokeColor=#d6b656;" vertex="1" parent="1">
          <mxGeometry x="400" y="270" width="30" height="60" as="geometry" />
        </mxCell>
        <mxCell id="Lmu29EtrBAVmeMRxVqhO-9" value="Farid" style="shape=umlActor;verticalLabelPosition=bottom;verticalAlign=top;html=1;outlineConnect=0;fillColor=#d5e8d4;strokeColor=#82b366;" vertex="1" parent="1">
          <mxGeometry x="590" y="260" width="30" height="60" as="geometry" />
        </mxCell>
        <mxCell id="Lmu29EtrBAVmeMRxVqhO-11" value="Product&lt;div&gt;Customer&lt;/div&gt;&lt;div&gt;Skillset&lt;/div&gt;&lt;div&gt;&lt;br&gt;&lt;/div&gt;" style="text;html=1;align=center;verticalAlign=middle;whiteSpace=wrap;rounded=0;" vertex="1" parent="1">
          <mxGeometry x="840" y="180" width="60" height="100" as="geometry" />
        </mxCell>
        <mxCell id="Lmu29EtrBAVmeMRxVqhO-12" value="LIST OF ITEMS&lt;div&gt;&lt;br&gt;&lt;/div&gt;&lt;div&gt;Comparing Two sets of data!!&lt;/div&gt;&lt;div&gt;&lt;br&gt;&lt;/div&gt;&lt;div&gt;How similar two different set/list are&lt;/div&gt;" style="text;html=1;align=center;verticalAlign=middle;whiteSpace=wrap;rounded=0;" vertex="1" parent="1">
          <mxGeometry x="710" y="210" width="140" height="200" as="geometry" />
        </mxCell>
        <mxCell id="Lmu29EtrBAVmeMRxVqhO-13" value="football team" style="text;html=1;align=center;verticalAlign=middle;whiteSpace=wrap;rounded=0;" vertex="1" parent="1">
          <mxGeometry x="150" y="180" width="60" height="30" as="geometry" />
        </mxCell>
        <mxCell id="Lmu29EtrBAVmeMRxVqhO-14" value="basketball team" style="text;html=1;align=center;verticalAlign=middle;whiteSpace=wrap;rounded=0;" vertex="1" parent="1">
          <mxGeometry x="480" y="180" width="60" height="30" as="geometry" />
        </mxCell>
        <mxCell id="Lmu29EtrBAVmeMRxVqhO-15" value="" style="endArrow=none;dashed=1;html=1;dashPattern=1 3;strokeWidth=2;rounded=0;" edge="1" parent="1">
          <mxGeometry width="50" height="50" relative="1" as="geometry">
            <mxPoint x="310" y="420" as="sourcePoint" />
            <mxPoint x="330" y="140" as="targetPoint" />
          </mxGeometry>
        </mxCell>
        <mxCell id="Lmu29EtrBAVmeMRxVqhO-16" value="" style="ellipse;whiteSpace=wrap;html=1;fillColor=none;" vertex="1" parent="1">
          <mxGeometry x="60" y="230" width="260" height="180" as="geometry" />
        </mxCell>
        <mxCell id="Lmu29EtrBAVmeMRxVqhO-17" value="" style="ellipse;whiteSpace=wrap;html=1;fillColor=none;" vertex="1" parent="1">
          <mxGeometry x="320" y="220" width="320" height="180" as="geometry" />
        </mxCell>
        <mxCell id="Lmu29EtrBAVmeMRxVqhO-18" value="how much they similar" style="text;html=1;align=center;verticalAlign=middle;whiteSpace=wrap;rounded=0;" vertex="1" parent="1">
          <mxGeometry x="350" y="420" width="60" height="30" as="geometry" />
        </mxCell>
        <mxCell id="Lmu29EtrBAVmeMRxVqhO-19" value="python" style="text;html=1;align=center;verticalAlign=middle;whiteSpace=wrap;rounded=0;fillColor=#f8cecc;strokeColor=#b85450;" vertex="1" parent="1">
          <mxGeometry x="140" y="585" width="60" height="30" as="geometry" />
        </mxCell>
        <mxCell id="Lmu29EtrBAVmeMRxVqhO-20" value="Zeyneb" style="shape=umlActor;verticalLabelPosition=bottom;verticalAlign=top;html=1;outlineConnect=0;" vertex="1" parent="1">
          <mxGeometry x="165" y="490" width="30" height="60" as="geometry" />
        </mxCell>
        <mxCell id="Lmu29EtrBAVmeMRxVqhO-21" value="Semra" style="shape=umlActor;verticalLabelPosition=bottom;verticalAlign=top;html=1;outlineConnect=0;" vertex="1" parent="1">
          <mxGeometry x="340" y="490" width="30" height="60" as="geometry" />
        </mxCell>
        <mxCell id="Lmu29EtrBAVmeMRxVqhO-22" value="python" style="text;html=1;align=center;verticalAlign=middle;whiteSpace=wrap;rounded=0;fillColor=#f8cecc;strokeColor=#b85450;" vertex="1" parent="1">
          <mxGeometry x="325" y="585" width="60" height="30" as="geometry" />
        </mxCell>
        <mxCell id="Lmu29EtrBAVmeMRxVqhO-23" value="sql" style="text;html=1;align=center;verticalAlign=middle;whiteSpace=wrap;rounded=0;" vertex="1" parent="1">
          <mxGeometry x="325" y="615" width="60" height="30" as="geometry" />
        </mxCell>
        <mxCell id="Lmu29EtrBAVmeMRxVqhO-24" value="data mining" style="text;html=1;align=center;verticalAlign=middle;whiteSpace=wrap;rounded=0;" vertex="1" parent="1">
          <mxGeometry x="140" y="615" width="60" height="30" as="geometry" />
        </mxCell>
        <mxCell id="Lmu29EtrBAVmeMRxVqhO-25" value="data science" style="text;html=1;align=center;verticalAlign=middle;whiteSpace=wrap;rounded=0;fillColor=#f8cecc;strokeColor=#b85450;" vertex="1" parent="1">
          <mxGeometry x="140" y="650" width="60" height="30" as="geometry" />
        </mxCell>
        <mxCell id="Lmu29EtrBAVmeMRxVqhO-26" value="data science" style="text;html=1;align=center;verticalAlign=middle;whiteSpace=wrap;rounded=0;fillColor=#f8cecc;strokeColor=#b85450;" vertex="1" parent="1">
          <mxGeometry x="325" y="645" width="60" height="30" as="geometry" />
        </mxCell>
        <mxCell id="Lmu29EtrBAVmeMRxVqhO-27" value="mysql" style="text;html=1;align=center;verticalAlign=middle;whiteSpace=wrap;rounded=0;fillColor=#f8cecc;strokeColor=#b85450;" vertex="1" parent="1">
          <mxGeometry x="325" y="695" width="60" height="30" as="geometry" />
        </mxCell>
        <mxCell id="Lmu29EtrBAVmeMRxVqhO-28" value="mysql" style="text;html=1;align=center;verticalAlign=middle;whiteSpace=wrap;rounded=0;fillColor=#f8cecc;strokeColor=#b85450;" vertex="1" parent="1">
          <mxGeometry x="140" y="695" width="60" height="30" as="geometry" />
        </mxCell>
        <mxCell id="Lmu29EtrBAVmeMRxVqhO-29" value="mongodb" style="text;html=1;align=center;verticalAlign=middle;whiteSpace=wrap;rounded=0;" vertex="1" parent="1">
          <mxGeometry x="325" y="725" width="60" height="30" as="geometry" />
        </mxCell>
        <mxCell id="Lmu29EtrBAVmeMRxVqhO-30" value="networkx" style="text;html=1;align=center;verticalAlign=middle;whiteSpace=wrap;rounded=0;" vertex="1" parent="1">
          <mxGeometry x="140" y="725" width="60" height="30" as="geometry" />
        </mxCell>
        <mxCell id="Lmu29EtrBAVmeMRxVqhO-31" value="list of items&lt;div&gt;(string)&lt;/div&gt;" style="text;html=1;align=center;verticalAlign=middle;whiteSpace=wrap;rounded=0;" vertex="1" parent="1">
          <mxGeometry x="220" y="505" width="60" height="30" as="geometry" />
        </mxCell>
        <mxCell id="Lmu29EtrBAVmeMRxVqhO-32" value="Ayten" style="shape=umlActor;verticalLabelPosition=bottom;verticalAlign=top;html=1;outlineConnect=0;" vertex="1" parent="1">
          <mxGeometry x="495" y="480" width="30" height="60" as="geometry" />
        </mxCell>
        <mxCell id="Lmu29EtrBAVmeMRxVqhO-33" value="c" style="text;html=1;align=center;verticalAlign=middle;whiteSpace=wrap;rounded=0;" vertex="1" parent="1">
          <mxGeometry x="480" y="575" width="60" height="30" as="geometry" />
        </mxCell>
        <mxCell id="Lmu29EtrBAVmeMRxVqhO-34" value="sql" style="text;html=1;align=center;verticalAlign=middle;whiteSpace=wrap;rounded=0;" vertex="1" parent="1">
          <mxGeometry x="480" y="605" width="60" height="30" as="geometry" />
        </mxCell>
        <mxCell id="Lmu29EtrBAVmeMRxVqhO-35" value="data science" style="text;html=1;align=center;verticalAlign=middle;whiteSpace=wrap;rounded=0;fillColor=#f8cecc;strokeColor=#b85450;" vertex="1" parent="1">
          <mxGeometry x="480" y="635" width="60" height="30" as="geometry" />
        </mxCell>
        <mxCell id="Lmu29EtrBAVmeMRxVqhO-36" value="mssql" style="text;html=1;align=center;verticalAlign=middle;whiteSpace=wrap;rounded=0;" vertex="1" parent="1">
          <mxGeometry x="480" y="685" width="60" height="30" as="geometry" />
        </mxCell>
        <mxCell id="Lmu29EtrBAVmeMRxVqhO-37" value="mongodb" style="text;html=1;align=center;verticalAlign=middle;whiteSpace=wrap;rounded=0;" vertex="1" parent="1">
          <mxGeometry x="480" y="715" width="60" height="30" as="geometry" />
        </mxCell>
        <mxCell id="Lmu29EtrBAVmeMRxVqhO-38" value="||Zeyneb - Semra|| &amp;lt; || Semra - Ayten||" style="text;html=1;align=center;verticalAlign=middle;whiteSpace=wrap;rounded=0;" vertex="1" parent="1">
          <mxGeometry x="220" y="800" width="250" height="30" as="geometry" />
        </mxCell>
        <mxCell id="Lmu29EtrBAVmeMRxVqhO-40" value="similarity == 1/distance&amp;nbsp;" style="text;html=1;align=center;verticalAlign=middle;whiteSpace=wrap;rounded=0;" vertex="1" parent="1">
          <mxGeometry x="220" y="870" width="250" height="30" as="geometry" />
        </mxCell>
        <mxCell id="Lmu29EtrBAVmeMRxVqhO-41" value="" style="ellipse;whiteSpace=wrap;html=1;aspect=fixed;" vertex="1" parent="1">
          <mxGeometry x="150" y="990" width="40" height="40" as="geometry" />
        </mxCell>
        <mxCell id="Lmu29EtrBAVmeMRxVqhO-42" value="" style="ellipse;whiteSpace=wrap;html=1;aspect=fixed;" vertex="1" parent="1">
          <mxGeometry x="195" y="990" width="40" height="40" as="geometry" />
        </mxCell>
        <mxCell id="Lmu29EtrBAVmeMRxVqhO-43" value="" style="endArrow=classic;html=1;rounded=0;" edge="1" parent="1">
          <mxGeometry width="50" height="50" relative="1" as="geometry">
            <mxPoint x="170" y="970" as="sourcePoint" />
            <mxPoint x="170" y="880" as="targetPoint" />
          </mxGeometry>
        </mxCell>
        <mxCell id="Lmu29EtrBAVmeMRxVqhO-46" value="simliarity" style="text;html=1;align=center;verticalAlign=middle;whiteSpace=wrap;rounded=0;" vertex="1" parent="1">
          <mxGeometry x="110" y="950" width="60" height="30" as="geometry" />
        </mxCell>
        <mxCell id="Lmu29EtrBAVmeMRxVqhO-47" value="" style="endArrow=classic;html=1;rounded=0;" edge="1" parent="1">
          <mxGeometry width="50" height="50" relative="1" as="geometry">
            <mxPoint x="200" y="880" as="sourcePoint" />
            <mxPoint x="200" y="970" as="targetPoint" />
          </mxGeometry>
        </mxCell>
        <mxCell id="Lmu29EtrBAVmeMRxVqhO-48" value="distance" style="text;html=1;align=center;verticalAlign=middle;whiteSpace=wrap;rounded=0;" vertex="1" parent="1">
          <mxGeometry x="220" y="950" width="60" height="30" as="geometry" />
        </mxCell>
        <mxCell id="Lmu29EtrBAVmeMRxVqhO-49" value="" style="ellipse;whiteSpace=wrap;html=1;aspect=fixed;" vertex="1" parent="1">
          <mxGeometry x="480" y="1020" width="40" height="40" as="geometry" />
        </mxCell>
        <mxCell id="Lmu29EtrBAVmeMRxVqhO-50" value="" style="ellipse;whiteSpace=wrap;html=1;aspect=fixed;" vertex="1" parent="1">
          <mxGeometry x="790" y="1020" width="40" height="40" as="geometry" />
        </mxCell>
        <mxCell id="Lmu29EtrBAVmeMRxVqhO-51" value="" style="endArrow=classic;html=1;rounded=0;" edge="1" parent="1">
          <mxGeometry width="50" height="50" relative="1" as="geometry">
            <mxPoint x="800" y="1010" as="sourcePoint" />
            <mxPoint x="800" y="920" as="targetPoint" />
          </mxGeometry>
        </mxCell>
        <mxCell id="Lmu29EtrBAVmeMRxVqhO-52" value="simliarity" style="text;html=1;align=center;verticalAlign=middle;whiteSpace=wrap;rounded=0;" vertex="1" parent="1">
          <mxGeometry x="440" y="980" width="60" height="30" as="geometry" />
        </mxCell>
        <mxCell id="Lmu29EtrBAVmeMRxVqhO-53" value="" style="endArrow=classic;html=1;rounded=0;" edge="1" parent="1">
          <mxGeometry width="50" height="50" relative="1" as="geometry">
            <mxPoint x="510" y="910" as="sourcePoint" />
            <mxPoint x="510" y="1000" as="targetPoint" />
          </mxGeometry>
        </mxCell>
        <mxCell id="Lmu29EtrBAVmeMRxVqhO-54" value="distance" style="text;html=1;align=center;verticalAlign=middle;whiteSpace=wrap;rounded=0;" vertex="1" parent="1">
          <mxGeometry x="730" y="970" width="60" height="30" as="geometry" />
        </mxCell>
        <mxCell id="Lmu29EtrBAVmeMRxVqhO-55" value="" style="endArrow=classic;html=1;rounded=0;" edge="1" parent="1">
          <mxGeometry width="50" height="50" relative="1" as="geometry">
            <mxPoint x="410" y="590" as="sourcePoint" />
            <mxPoint x="410" y="640" as="targetPoint" />
          </mxGeometry>
        </mxCell>
        <mxCell id="Lmu29EtrBAVmeMRxVqhO-56" value="similarity&lt;div&gt;low&lt;/div&gt;" style="text;html=1;align=center;verticalAlign=middle;whiteSpace=wrap;rounded=0;" vertex="1" parent="1">
          <mxGeometry x="380" y="635" width="60" height="30" as="geometry" />
        </mxCell>
        <mxCell id="Lmu29EtrBAVmeMRxVqhO-57" value="distance&lt;div&gt;high&lt;/div&gt;" style="text;html=1;align=center;verticalAlign=middle;whiteSpace=wrap;rounded=0;" vertex="1" parent="1">
          <mxGeometry x="430" y="570" width="60" height="30" as="geometry" />
        </mxCell>
        <mxCell id="Lmu29EtrBAVmeMRxVqhO-58" value="" style="endArrow=classic;html=1;rounded=0;" edge="1" parent="1">
          <mxGeometry width="50" height="50" relative="1" as="geometry">
            <mxPoint x="450" y="570" as="sourcePoint" />
            <mxPoint x="450" y="510" as="targetPoint" />
          </mxGeometry>
        </mxCell>
        <mxCell id="Lmu29EtrBAVmeMRxVqhO-59" value="JACCARD SIMILARITY!!" style="text;html=1;align=center;verticalAlign=middle;whiteSpace=wrap;rounded=0;" vertex="1" parent="1">
          <mxGeometry x="300" y="80" width="60" height="30" as="geometry" />
        </mxCell>
        <mxCell id="Lmu29EtrBAVmeMRxVqhO-61" value="number of common items: number of items which both occour in set A and set B" style="text;html=1;align=center;verticalAlign=middle;whiteSpace=wrap;rounded=0;fillColor=#d5e8d4;strokeColor=#82b366;" vertex="1" parent="1">
          <mxGeometry x="420" y="20" width="230" height="60" as="geometry" />
        </mxCell>
        <mxCell id="Lmu29EtrBAVmeMRxVqhO-62" value="python" style="text;html=1;align=center;verticalAlign=middle;whiteSpace=wrap;rounded=0;fillColor=#f8cecc;strokeColor=#b85450;" vertex="1" parent="1">
          <mxGeometry x="20" y="592.5" width="60" height="30" as="geometry" />
        </mxCell>
        <mxCell id="Lmu29EtrBAVmeMRxVqhO-63" value="Sevda" style="shape=umlActor;verticalLabelPosition=bottom;verticalAlign=top;html=1;outlineConnect=0;" vertex="1" parent="1">
          <mxGeometry x="45" y="497.5" width="30" height="60" as="geometry" />
        </mxCell>
        <mxCell id="Lmu29EtrBAVmeMRxVqhO-64" value="data mining" style="text;html=1;align=center;verticalAlign=middle;whiteSpace=wrap;rounded=0;" vertex="1" parent="1">
          <mxGeometry x="20" y="622.5" width="60" height="30" as="geometry" />
        </mxCell>
        <mxCell id="Lmu29EtrBAVmeMRxVqhO-72" style="edgeStyle=orthogonalEdgeStyle;rounded=0;orthogonalLoop=1;jettySize=auto;html=1;entryX=0;entryY=0.5;entryDx=0;entryDy=0;" edge="1" parent="1" source="Lmu29EtrBAVmeMRxVqhO-65" target="Lmu29EtrBAVmeMRxVqhO-25">
          <mxGeometry relative="1" as="geometry" />
        </mxCell>
        <mxCell id="Lmu29EtrBAVmeMRxVqhO-65" value="data science" style="text;html=1;align=center;verticalAlign=middle;whiteSpace=wrap;rounded=0;fillColor=#f8cecc;strokeColor=#b85450;" vertex="1" parent="1">
          <mxGeometry x="20" y="657.5" width="60" height="30" as="geometry" />
        </mxCell>
        <mxCell id="Lmu29EtrBAVmeMRxVqhO-74" style="edgeStyle=orthogonalEdgeStyle;rounded=0;orthogonalLoop=1;jettySize=auto;html=1;entryX=0;entryY=0.5;entryDx=0;entryDy=0;" edge="1" parent="1" source="Lmu29EtrBAVmeMRxVqhO-66" target="Lmu29EtrBAVmeMRxVqhO-28">
          <mxGeometry relative="1" as="geometry" />
        </mxCell>
        <mxCell id="Lmu29EtrBAVmeMRxVqhO-66" value="mysql" style="text;html=1;align=center;verticalAlign=middle;whiteSpace=wrap;rounded=0;fillColor=#f8cecc;strokeColor=#b85450;" vertex="1" parent="1">
          <mxGeometry x="20" y="702.5" width="60" height="30" as="geometry" />
        </mxCell>
        <mxCell id="Lmu29EtrBAVmeMRxVqhO-67" value="networkx" style="text;html=1;align=center;verticalAlign=middle;whiteSpace=wrap;rounded=0;" vertex="1" parent="1">
          <mxGeometry x="20" y="732.5" width="60" height="30" as="geometry" />
        </mxCell>
        <mxCell id="Lmu29EtrBAVmeMRxVqhO-68" value="igraph" style="text;html=1;align=center;verticalAlign=middle;whiteSpace=wrap;rounded=0;" vertex="1" parent="1">
          <mxGeometry x="20" y="770" width="60" height="30" as="geometry" />
        </mxCell>
        <mxCell id="Lmu29EtrBAVmeMRxVqhO-69" value="matplotlib" style="text;html=1;align=center;verticalAlign=middle;whiteSpace=wrap;rounded=0;" vertex="1" parent="1">
          <mxGeometry x="20" y="810" width="60" height="30" as="geometry" />
        </mxCell>
        <mxCell id="Lmu29EtrBAVmeMRxVqhO-70" value="numpy" style="text;html=1;align=center;verticalAlign=middle;whiteSpace=wrap;rounded=0;" vertex="1" parent="1">
          <mxGeometry x="20" y="840" width="60" height="30" as="geometry" />
        </mxCell>
        <mxCell id="Lmu29EtrBAVmeMRxVqhO-71" value="statistics" style="text;html=1;align=center;verticalAlign=middle;whiteSpace=wrap;rounded=0;" vertex="1" parent="1">
          <mxGeometry x="20" y="870" width="60" height="30" as="geometry" />
        </mxCell>
        <mxCell id="Lmu29EtrBAVmeMRxVqhO-73" style="edgeStyle=orthogonalEdgeStyle;rounded=0;orthogonalLoop=1;jettySize=auto;html=1;entryX=-0.047;entryY=0.546;entryDx=0;entryDy=0;entryPerimeter=0;" edge="1" parent="1" source="Lmu29EtrBAVmeMRxVqhO-62" target="Lmu29EtrBAVmeMRxVqhO-19">
          <mxGeometry relative="1" as="geometry" />
        </mxCell>
        <mxCell id="Lmu29EtrBAVmeMRxVqhO-75" value="" style="endArrow=none;html=1;rounded=0;" edge="1" parent="1">
          <mxGeometry width="50" height="50" relative="1" as="geometry">
            <mxPoint x="380" y="94.76" as="sourcePoint" />
            <mxPoint x="710" y="94.76" as="targetPoint" />
          </mxGeometry>
        </mxCell>
        <mxCell id="Lmu29EtrBAVmeMRxVqhO-76" value="total number of items in A and B" style="text;html=1;align=center;verticalAlign=middle;whiteSpace=wrap;rounded=0;fillColor=#f8cecc;strokeColor=#b85450;" vertex="1" parent="1">
          <mxGeometry x="420" y="100" width="230" height="60" as="geometry" />
        </mxCell>
        <mxCell id="Lmu29EtrBAVmeMRxVqhO-77" value="AnB&lt;div&gt;-------------&lt;/div&gt;&lt;div&gt;AuB&lt;/div&gt;" style="text;html=1;align=center;verticalAlign=middle;whiteSpace=wrap;rounded=0;" vertex="1" parent="1">
          <mxGeometry x="740" y="30" width="80" height="100" as="geometry" />
        </mxCell>
        <mxCell id="Lmu29EtrBAVmeMRxVqhO-78" value="&lt;div&gt;intersection&lt;/div&gt;&lt;div&gt;-------------&lt;/div&gt;&lt;div&gt;union&lt;/div&gt;" style="text;html=1;align=center;verticalAlign=middle;whiteSpace=wrap;rounded=0;" vertex="1" parent="1">
          <mxGeometry x="850" y="30" width="80" height="100" as="geometry" />
        </mxCell>
        <mxCell id="Lmu29EtrBAVmeMRxVqhO-79" value="" style="shape=image;verticalLabelPosition=bottom;labelBackgroundColor=default;verticalAlign=top;aspect=fixed;imageAspect=0;image=https://media.geeksforgeeks.org/wp-content/uploads/20211223145401/Jaccard.jpg;" vertex="1" parent="1">
          <mxGeometry x="970" y="60" width="590" height="380" as="geometry" />
        </mxCell>
        <mxCell id="Lmu29EtrBAVmeMRxVqhO-80" value="A" style="ellipse;whiteSpace=wrap;html=1;aspect=fixed;" vertex="1" parent="1">
          <mxGeometry x="1260" y="558" width="80" height="80" as="geometry" />
        </mxCell>
        <mxCell id="Lmu29EtrBAVmeMRxVqhO-81" value="B" style="ellipse;whiteSpace=wrap;html=1;aspect=fixed;" vertex="1" parent="1">
          <mxGeometry x="1500" y="610" width="80" height="80" as="geometry" />
        </mxCell>
        <mxCell id="Lmu29EtrBAVmeMRxVqhO-82" value="300" style="endArrow=classic;startArrow=classic;html=1;rounded=0;exitX=0.977;exitY=0.632;exitDx=0;exitDy=0;exitPerimeter=0;" edge="1" parent="1" source="Lmu29EtrBAVmeMRxVqhO-80" target="Lmu29EtrBAVmeMRxVqhO-81">
          <mxGeometry width="50" height="50" relative="1" as="geometry">
            <mxPoint x="1340" y="690" as="sourcePoint" />
            <mxPoint x="1390" y="640" as="targetPoint" />
          </mxGeometry>
        </mxCell>
        <mxCell id="Lmu29EtrBAVmeMRxVqhO-83" value="There is no direction for similarity and distance&lt;div&gt;&lt;br&gt;&lt;/div&gt;&lt;div&gt;SO ! there cannot be negative similarity or distance&lt;/div&gt;" style="text;html=1;align=center;verticalAlign=middle;whiteSpace=wrap;rounded=0;" vertex="1" parent="1">
          <mxGeometry x="1270" y="690" width="180" height="90" as="geometry" />
        </mxCell>
      </root>
    </mxGraphModel>
  </diagram>
</mxfile>
